<svg width="14" height="13" viewBox="0 0 14 13" fill="none" xmlns="http://www.w3.org/2000/svg"><path d="M14 8.37141L11.9 5.79559L9.8 8.37141H11.1342C10.829 9.96133 9.4276 11.2505 7.7 11.5306V7.0835H9.1V5.79559H7.7V4.72405C8.7801 4.42847 9.5998 3.48573 9.5998 2.39229C9.5998 1.07283 8.4336 0 7 0C5.5664 0 4.4002 1.07283 4.4002 2.39229C4.4002 3.48573 5.2199 4.42847 6.3 4.72405V5.79559H4.9V7.0835H6.3V11.5306C4.5717 11.2505 3.1703 9.96133 2.8658 8.37141H4.2L2.1 5.79559L0 8.37141H1.4511C1.8088 10.8732 4.2014 12.8791 7 12.8791C9.7986 12.8791 12.1912 10.8732 12.5489 8.37141H14ZM5.8002 2.39229C5.8002 1.78375 6.3385 1.28791 7 1.28791C7.6615 1.28791 8.1998 1.78375 8.1998 2.39229C8.1998 3.00469 7.6391 3.54175 7 3.54175C6.3609 3.54175 5.8002 3.00469 5.8002 2.39229Z" fill="white"/></svg>
